<svg xmlns="http://www.w3.org/2000/svg" version="1.1" xmlns:xlink="http://www.w3.org/1999/xlink" xmlns:svgjs="http://svgjs.dev/svgjs" width="1920" height="1080" preserveAspectRatio="none" viewBox="0 0 1920 1080"><g mask="url(&quot;#SvgjsMask1057&quot;)" fill="none"><rect width="1920" height="1080" x="0" y="0" fill="rgba(247, 252, 255, 1)"></rect><path d="M0,841.772C162.242,881.855,363.241,868.015,482.791,751.238C603.075,633.744,528.64,425.786,587.221,268.175C639.542,127.407,813.748,34.177,805.035,-115.747C796.326,-265.592,658.044,-373.722,544.228,-471.576C442.335,-559.179,308.555,-582.923,189.401,-645.041C34.235,-725.932,-90.099,-925.256,-261.857,-891.804C-429.852,-859.085,-461.418,-626.287,-573.044,-496.546C-684.135,-367.428,-911.37,-301.952,-915.853,-131.68C-920.472,43.785,-705.754,136.199,-593.249,270.928C-513.348,366.613,-440.315,458.934,-350.488,545.369C-237.956,653.651,-151.61,804.316,0,841.772" fill="#def3ff"></path><path d="M1920 2036.1219999999998C2097.011 2000.339 2143.297 1760.989 2289.6549999999997 1655.194 2423.733 1558.276 2636.496 1586.259 2730.592 1450.185 2826.272 1311.821 2831.0190000000002 1115.061 2772.126 957.483 2716.341 808.219 2531.607 760.885 2427.795 639.9929999999999 2323.286 518.29 2318.338 292.749 2163.936 249.23199999999997 2009.139 205.60299999999995 1888.265 401.126 1733.33 444.26199999999994 1574.969 488.352 1380.796 398.39300000000003 1253.7069999999999 502.654 1126.357 607.129 1129.625 800.0070000000001 1101.795 962.36 1073.23 1129.004 1028.163 1301.704 1089.748 1459.163 1152.685 1620.079 1298.066 1728.3609999999999 1439.9560000000001 1826.963 1586.252 1928.627 1745.38 2071.422 1920 2036.1219999999998" fill="#ffffff"></path></g><defs><mask id="SvgjsMask1057"><rect width="1920" height="1080" fill="#ffffff"></rect></mask></defs></svg>