<svg xmlns="http://www.w3.org/2000/svg" version="1.1" xmlns:xlink="http://www.w3.org/1999/xlink" xmlns:svgjs="http://svgjs.dev/svgjs" width="1080" height="1080" preserveAspectRatio="none" viewBox="0 0 1080 1080"><g mask="url(&quot;#SvgjsMask2903&quot;)" fill="none"><rect width="1080" height="1080" x="0" y="0" fill="url(&quot;#SvgjsLinearGradient2904&quot;)"></rect><use xlink:href="#SvgjsSymbol2911" x="0" y="0"></use><use xlink:href="#SvgjsSymbol2911" x="0" y="720"></use><use xlink:href="#SvgjsSymbol2911" x="720" y="0"></use><use xlink:href="#SvgjsSymbol2911" x="720" y="720"></use></g><defs><mask id="SvgjsMask2903"><rect width="1080" height="1080" fill="#ffffff"></rect></mask><linearGradient x1="100%" y1="100%" x2="0%" y2="0%" gradientUnits="userSpaceOnUse" id="SvgjsLinearGradient2904"><stop stop-color="rgba(241, 248, 255, 1)" offset="0"></stop><stop stop-color="rgba(255, 255, 255, 1)" offset="0.5"></stop></linearGradient><path d="M-1 0 a1 1 0 1 0 2 0 a1 1 0 1 0 -2 0z" id="SvgjsPath2908"></path><path d="M-3 0 a3 3 0 1 0 6 0 a3 3 0 1 0 -6 0z" id="SvgjsPath2907"></path><path d="M-5 0 a5 5 0 1 0 10 0 a5 5 0 1 0 -10 0z" id="SvgjsPath2905"></path><path d="M2 -2 L-2 2z" id="SvgjsPath2906"></path><path d="M6 -6 L-6 6z" id="SvgjsPath2909"></path><path d="M30 -30 L-30 30z" id="SvgjsPath2910"></path></defs><symbol id="SvgjsSymbol2911"><use xlink:href="#SvgjsPath2905" x="30" y="30" stroke="rgba(66, 68, 90, 0.11)"></use><use xlink:href="#SvgjsPath2906" x="30" y="90" stroke="rgba(66, 68, 90, 0.11)"></use><use xlink:href="#SvgjsPath2907" x="30" y="150" stroke="rgba(66, 68, 90, 0.11)"></use><use xlink:href="#SvgjsPath2908" x="30" y="210" stroke="rgba(66, 68, 90, 0.11)"></use><use xlink:href="#SvgjsPath2909" x="30" y="270" stroke="rgba(66, 68, 90, 0.11)"></use><use xlink:href="#SvgjsPath2906" x="30" y="330" stroke="rgba(66, 68, 90, 0.11)"></use><use xlink:href="#SvgjsPath2909" x="30" y="390" stroke="rgba(66, 68, 90, 0.11)"></use><use xlink:href="#SvgjsPath2905" x="30" y="450" stroke="rgba(66, 68, 90, 0.11)"></use><use xlink:href="#SvgjsPath2909" x="30" y="510" stroke="rgba(66, 68, 90, 0.11)"></use><use xlink:href="#SvgjsPath2905" x="30" y="570" stroke="rgba(66, 68, 90, 0.11)"></use><use xlink:href="#SvgjsPath2908" x="30" y="630" stroke="rgba(66, 68, 90, 0.11)"></use><use xlink:href="#SvgjsPath2909" x="30" y="690" stroke="rgba(66, 68, 90, 0.11)"></use><use xlink:href="#SvgjsPath2906" x="90" y="30" stroke="rgba(66, 68, 90, 0.11)"></use><use xlink:href="#SvgjsPath2908" x="90" y="90" stroke="rgba(66, 68, 90, 0.11)"></use><use xlink:href="#SvgjsPath2907" x="90" y="150" stroke="rgba(66, 68, 90, 0.11)"></use><use xlink:href="#SvgjsPath2907" x="90" y="210" stroke="rgba(66, 68, 90, 0.11)"></use><use xlink:href="#SvgjsPath2905" x="90" y="270" stroke="rgba(66, 68, 90, 0.11)"></use><use xlink:href="#SvgjsPath2905" x="90" y="330" stroke="rgba(66, 68, 90, 0.11)"></use><use xlink:href="#SvgjsPath2909" x="90" y="390" stroke="rgba(66, 68, 90, 0.11)"></use><use xlink:href="#SvgjsPath2909" x="90" y="450" stroke="rgba(66, 68, 90, 0.11)"></use><use xlink:href="#SvgjsPath2909" x="90" y="510" stroke="rgba(66, 68, 90, 0.11)"></use><use xlink:href="#SvgjsPath2908" x="90" y="570" stroke="rgba(66, 68, 90, 0.11)"></use><use xlink:href="#SvgjsPath2907" x="90" y="630" stroke="rgba(66, 68, 90, 0.11)"></use><use xlink:href="#SvgjsPath2905" x="90" y="690" stroke="rgba(66, 68, 90, 0.11)"></use><use xlink:href="#SvgjsPath2909" x="150" y="30" stroke="rgba(66, 68, 90, 0.11)"></use><use xlink:href="#SvgjsPath2905" x="150" y="90" stroke="rgba(66, 68, 90, 0.11)"></use><use xlink:href="#SvgjsPath2905" x="150" y="150" stroke="rgba(66, 68, 90, 0.11)"></use><use xlink:href="#SvgjsPath2909" x="150" y="210" stroke="rgba(66, 68, 90, 0.11)"></use><use xlink:href="#SvgjsPath2909" x="150" y="270" stroke="rgba(66, 68, 90, 0.11)"></use><use xlink:href="#SvgjsPath2907" x="150" y="330" stroke="rgba(66, 68, 90, 0.11)"></use><use xlink:href="#SvgjsPath2909" x="150" y="390" stroke="rgba(66, 68, 90, 0.11)"></use><use xlink:href="#SvgjsPath2909" x="150" y="450" stroke="rgba(66, 68, 90, 0.11)"></use><use xlink:href="#SvgjsPath2905" x="150" y="510" stroke="rgba(66, 68, 90, 0.11)"></use><use xlink:href="#SvgjsPath2905" x="150" y="570" stroke="rgba(66, 68, 90, 0.11)"></use><use xlink:href="#SvgjsPath2908" x="150" y="630" stroke="rgba(66, 68, 90, 0.11)"></use><use xlink:href="#SvgjsPath2906" x="150" y="690" stroke="rgba(66, 68, 90, 0.11)"></use><use xlink:href="#SvgjsPath2909" x="210" y="30" stroke="rgba(66, 68, 90, 0.11)"></use><use xlink:href="#SvgjsPath2909" x="210" y="90" stroke="rgba(66, 68, 90, 0.11)"></use><use xlink:href="#SvgjsPath2905" x="210" y="150" stroke="rgba(66, 68, 90, 0.11)"></use><use xlink:href="#SvgjsPath2907" x="210" y="210" stroke="rgba(66, 68, 90, 0.11)"></use><use xlink:href="#SvgjsPath2906" x="210" y="270" stroke="rgba(66, 68, 90, 0.11)"></use><use xlink:href="#SvgjsPath2907" x="210" y="330" stroke="rgba(66, 68, 90, 0.11)"></use><use xlink:href="#SvgjsPath2906" x="210" y="390" stroke="rgba(66, 68, 90, 0.11)"></use><use xlink:href="#SvgjsPath2905" x="210" y="450" stroke="rgba(66, 68, 90, 0.11)"></use><use xlink:href="#SvgjsPath2909" x="210" y="510" stroke="rgba(66, 68, 90, 0.11)"></use><use xlink:href="#SvgjsPath2909" x="210" y="570" stroke="rgba(66, 68, 90, 0.11)"></use><use xlink:href="#SvgjsPath2907" x="210" y="630" stroke="rgba(66, 68, 90, 0.11)"></use><use xlink:href="#SvgjsPath2909" x="210" y="690" stroke="rgba(66, 68, 90, 0.11)"></use><use xlink:href="#SvgjsPath2906" x="270" y="30" stroke="rgba(66, 68, 90, 0.11)"></use><use xlink:href="#SvgjsPath2905" x="270" y="90" stroke="rgba(66, 68, 90, 0.11)"></use><use xlink:href="#SvgjsPath2909" x="270" y="150" stroke="rgba(66, 68, 90, 0.11)"></use><use xlink:href="#SvgjsPath2909" x="270" y="210" stroke="rgba(66, 68, 90, 0.11)"></use><use xlink:href="#SvgjsPath2909" x="270" y="270" stroke="rgba(66, 68, 90, 0.11)"></use><use xlink:href="#SvgjsPath2905" x="270" y="330" stroke="rgba(66, 68, 90, 0.11)"></use><use xlink:href="#SvgjsPath2905" x="270" y="390" stroke="rgba(66, 68, 90, 0.11)"></use><use xlink:href="#SvgjsPath2909" x="270" y="450" stroke="rgba(66, 68, 90, 0.11)"></use><use xlink:href="#SvgjsPath2909" x="270" y="510" stroke="rgba(66, 68, 90, 0.11)"></use><use xlink:href="#SvgjsPath2905" x="270" y="570" stroke="rgba(66, 68, 90, 0.11)"></use><use xlink:href="#SvgjsPath2906" x="270" y="630" stroke="rgba(66, 68, 90, 0.11)"></use><use xlink:href="#SvgjsPath2910" x="270" y="690" stroke="rgba(66, 68, 90, 0.11)" stroke-width="3"></use><use xlink:href="#SvgjsPath2905" x="330" y="30" stroke="rgba(66, 68, 90, 0.11)"></use><use xlink:href="#SvgjsPath2908" x="330" y="90" stroke="rgba(66, 68, 90, 0.11)"></use><use xlink:href="#SvgjsPath2905" x="330" y="150" stroke="rgba(66, 68, 90, 0.11)"></use><use xlink:href="#SvgjsPath2906" x="330" y="210" stroke="rgba(66, 68, 90, 0.11)"></use><use xlink:href="#SvgjsPath2909" x="330" y="270" stroke="rgba(66, 68, 90, 0.11)"></use><use xlink:href="#SvgjsPath2906" x="330" y="330" stroke="rgba(66, 68, 90, 0.11)"></use><use xlink:href="#SvgjsPath2905" x="330" y="390" stroke="rgba(66, 68, 90, 0.11)"></use><use xlink:href="#SvgjsPath2905" x="330" y="450" stroke="rgba(66, 68, 90, 0.11)"></use><use xlink:href="#SvgjsPath2909" x="330" y="510" stroke="rgba(66, 68, 90, 0.11)"></use><use xlink:href="#SvgjsPath2906" x="330" y="570" stroke="rgba(66, 68, 90, 0.11)"></use><use xlink:href="#SvgjsPath2908" x="330" y="630" stroke="rgba(66, 68, 90, 0.11)"></use><use xlink:href="#SvgjsPath2905" x="330" y="690" stroke="rgba(66, 68, 90, 0.11)"></use><use xlink:href="#SvgjsPath2909" x="390" y="30" stroke="rgba(66, 68, 90, 0.11)"></use><use xlink:href="#SvgjsPath2909" x="390" y="90" stroke="rgba(66, 68, 90, 0.11)"></use><use xlink:href="#SvgjsPath2905" x="390" y="150" stroke="rgba(66, 68, 90, 0.11)"></use><use xlink:href="#SvgjsPath2909" x="390" y="210" stroke="rgba(66, 68, 90, 0.11)"></use><use xlink:href="#SvgjsPath2905" x="390" y="270" stroke="rgba(66, 68, 90, 0.11)"></use><use xlink:href="#SvgjsPath2909" x="390" y="330" stroke="rgba(66, 68, 90, 0.11)"></use><use xlink:href="#SvgjsPath2905" x="390" y="390" stroke="rgba(66, 68, 90, 0.11)"></use><use xlink:href="#SvgjsPath2908" x="390" y="450" stroke="rgba(66, 68, 90, 0.11)"></use><use xlink:href="#SvgjsPath2908" x="390" y="510" stroke="rgba(66, 68, 90, 0.11)"></use><use xlink:href="#SvgjsPath2908" x="390" y="570" stroke="rgba(66, 68, 90, 0.11)"></use><use xlink:href="#SvgjsPath2906" x="390" y="630" stroke="rgba(66, 68, 90, 0.11)"></use><use xlink:href="#SvgjsPath2909" x="390" y="690" stroke="rgba(66, 68, 90, 0.11)"></use><use xlink:href="#SvgjsPath2908" x="450" y="30" stroke="rgba(66, 68, 90, 0.11)"></use><use xlink:href="#SvgjsPath2909" x="450" y="90" stroke="rgba(66, 68, 90, 0.11)"></use><use xlink:href="#SvgjsPath2908" x="450" y="150" stroke="rgba(66, 68, 90, 0.11)"></use><use xlink:href="#SvgjsPath2909" x="450" y="210" stroke="rgba(66, 68, 90, 0.11)"></use><use xlink:href="#SvgjsPath2908" x="450" y="270" stroke="rgba(66, 68, 90, 0.11)"></use><use xlink:href="#SvgjsPath2905" x="450" y="330" stroke="rgba(66, 68, 90, 0.11)"></use><use xlink:href="#SvgjsPath2907" x="450" y="390" stroke="rgba(66, 68, 90, 0.11)"></use><use xlink:href="#SvgjsPath2906" x="450" y="450" stroke="rgba(66, 68, 90, 0.11)"></use><use xlink:href="#SvgjsPath2909" x="450" y="510" stroke="rgba(66, 68, 90, 0.11)"></use><use xlink:href="#SvgjsPath2910" x="450" y="570" stroke="rgba(66, 68, 90, 0.11)" stroke-width="3"></use><use xlink:href="#SvgjsPath2909" x="450" y="630" stroke="rgba(66, 68, 90, 0.11)"></use><use xlink:href="#SvgjsPath2905" x="450" y="690" stroke="rgba(66, 68, 90, 0.11)"></use><use xlink:href="#SvgjsPath2910" x="510" y="30" stroke="rgba(66, 68, 90, 0.11)" stroke-width="3"></use><use xlink:href="#SvgjsPath2905" x="510" y="90" stroke="rgba(66, 68, 90, 0.11)"></use><use xlink:href="#SvgjsPath2906" x="510" y="150" stroke="rgba(66, 68, 90, 0.11)"></use><use xlink:href="#SvgjsPath2908" x="510" y="210" stroke="rgba(66, 68, 90, 0.11)"></use><use xlink:href="#SvgjsPath2905" x="510" y="270" stroke="rgba(66, 68, 90, 0.11)"></use><use xlink:href="#SvgjsPath2905" x="510" y="330" stroke="rgba(66, 68, 90, 0.11)"></use><use xlink:href="#SvgjsPath2909" x="510" y="390" stroke="rgba(66, 68, 90, 0.11)"></use><use xlink:href="#SvgjsPath2905" x="510" y="450" stroke="rgba(66, 68, 90, 0.11)"></use><use xlink:href="#SvgjsPath2905" x="510" y="510" stroke="rgba(66, 68, 90, 0.11)"></use><use xlink:href="#SvgjsPath2907" x="510" y="570" stroke="rgba(66, 68, 90, 0.11)"></use><use xlink:href="#SvgjsPath2906" x="510" y="630" stroke="rgba(66, 68, 90, 0.11)"></use><use xlink:href="#SvgjsPath2907" x="510" y="690" stroke="rgba(66, 68, 90, 0.11)"></use><use xlink:href="#SvgjsPath2905" x="570" y="30" stroke="rgba(66, 68, 90, 0.11)"></use><use xlink:href="#SvgjsPath2905" x="570" y="90" stroke="rgba(66, 68, 90, 0.11)"></use><use xlink:href="#SvgjsPath2905" x="570" y="150" stroke="rgba(66, 68, 90, 0.11)"></use><use xlink:href="#SvgjsPath2909" x="570" y="210" stroke="rgba(66, 68, 90, 0.11)"></use><use xlink:href="#SvgjsPath2908" x="570" y="270" stroke="rgba(66, 68, 90, 0.11)"></use><use xlink:href="#SvgjsPath2906" x="570" y="330" stroke="rgba(66, 68, 90, 0.11)"></use><use xlink:href="#SvgjsPath2906" x="570" y="390" stroke="rgba(66, 68, 90, 0.11)"></use><use xlink:href="#SvgjsPath2905" x="570" y="450" stroke="rgba(66, 68, 90, 0.11)"></use><use xlink:href="#SvgjsPath2909" x="570" y="510" stroke="rgba(66, 68, 90, 0.11)"></use><use xlink:href="#SvgjsPath2905" x="570" y="570" stroke="rgba(66, 68, 90, 0.11)"></use><use xlink:href="#SvgjsPath2909" x="570" y="630" stroke="rgba(66, 68, 90, 0.11)"></use><use xlink:href="#SvgjsPath2909" x="570" y="690" stroke="rgba(66, 68, 90, 0.11)"></use><use xlink:href="#SvgjsPath2905" x="630" y="30" stroke="rgba(66, 68, 90, 0.11)"></use><use xlink:href="#SvgjsPath2909" x="630" y="90" stroke="rgba(66, 68, 90, 0.11)"></use><use xlink:href="#SvgjsPath2908" x="630" y="150" stroke="rgba(66, 68, 90, 0.11)"></use><use xlink:href="#SvgjsPath2905" x="630" y="210" stroke="rgba(66, 68, 90, 0.11)"></use><use xlink:href="#SvgjsPath2909" x="630" y="270" stroke="rgba(66, 68, 90, 0.11)"></use><use xlink:href="#SvgjsPath2909" x="630" y="330" stroke="rgba(66, 68, 90, 0.11)"></use><use xlink:href="#SvgjsPath2905" x="630" y="390" stroke="rgba(66, 68, 90, 0.11)"></use><use xlink:href="#SvgjsPath2908" x="630" y="450" stroke="rgba(66, 68, 90, 0.11)"></use><use xlink:href="#SvgjsPath2905" x="630" y="510" stroke="rgba(66, 68, 90, 0.11)"></use><use xlink:href="#SvgjsPath2906" x="630" y="570" stroke="rgba(66, 68, 90, 0.11)"></use><use xlink:href="#SvgjsPath2908" x="630" y="630" stroke="rgba(66, 68, 90, 0.11)"></use><use xlink:href="#SvgjsPath2907" x="630" y="690" stroke="rgba(66, 68, 90, 0.11)"></use><use xlink:href="#SvgjsPath2906" x="690" y="30" stroke="rgba(66, 68, 90, 0.11)"></use><use xlink:href="#SvgjsPath2906" x="690" y="90" stroke="rgba(66, 68, 90, 0.11)"></use><use xlink:href="#SvgjsPath2906" x="690" y="150" stroke="rgba(66, 68, 90, 0.11)"></use><use xlink:href="#SvgjsPath2907" x="690" y="210" stroke="rgba(66, 68, 90, 0.11)"></use><use xlink:href="#SvgjsPath2909" x="690" y="270" stroke="rgba(66, 68, 90, 0.11)"></use><use xlink:href="#SvgjsPath2905" x="690" y="330" stroke="rgba(66, 68, 90, 0.11)"></use><use xlink:href="#SvgjsPath2909" x="690" y="390" stroke="rgba(66, 68, 90, 0.11)"></use><use xlink:href="#SvgjsPath2909" x="690" y="450" stroke="rgba(66, 68, 90, 0.11)"></use><use xlink:href="#SvgjsPath2909" x="690" y="510" stroke="rgba(66, 68, 90, 0.11)"></use><use xlink:href="#SvgjsPath2909" x="690" y="570" stroke="rgba(66, 68, 90, 0.11)"></use><use xlink:href="#SvgjsPath2905" x="690" y="630" stroke="rgba(66, 68, 90, 0.11)"></use><use xlink:href="#SvgjsPath2906" x="690" y="690" stroke="rgba(66, 68, 90, 0.11)"></use></symbol></svg>