<svg xmlns="http://www.w3.org/2000/svg" version="1.1" xmlns:xlink="http://www.w3.org/1999/xlink" xmlns:svgjs="http://svgjs.dev/svgjs" width="1920" height="1080" preserveAspectRatio="none" viewBox="0 0 1920 1080"><g mask="url(&quot;#SvgjsMask2737&quot;)" fill="none"><rect width="1920" height="1080" x="0" y="0" fill="url(&quot;#SvgjsLinearGradient2738&quot;)"></rect><use xlink:href="#SvgjsSymbol2745" x="0" y="0"></use><use xlink:href="#SvgjsSymbol2745" x="0" y="720"></use><use xlink:href="#SvgjsSymbol2745" x="720" y="0"></use><use xlink:href="#SvgjsSymbol2745" x="720" y="720"></use><use xlink:href="#SvgjsSymbol2745" x="1440" y="0"></use><use xlink:href="#SvgjsSymbol2745" x="1440" y="720"></use></g><defs><mask id="SvgjsMask2737"><rect width="1920" height="1080" fill="#ffffff"></rect></mask><linearGradient x1="89.06%" y1="119.44%" x2="10.94%" y2="-19.44%" gradientUnits="userSpaceOnUse" id="SvgjsLinearGradient2738"><stop stop-color="rgba(241, 248, 255, 1)" offset="0"></stop><stop stop-color="rgba(255, 255, 255, 1)" offset="0.5"></stop></linearGradient><path d="M-1 0 a1 1 0 1 0 2 0 a1 1 0 1 0 -2 0z" id="SvgjsPath2744"></path><path d="M-3 0 a3 3 0 1 0 6 0 a3 3 0 1 0 -6 0z" id="SvgjsPath2741"></path><path d="M-5 0 a5 5 0 1 0 10 0 a5 5 0 1 0 -10 0z" id="SvgjsPath2740"></path><path d="M2 -2 L-2 2z" id="SvgjsPath2739"></path><path d="M6 -6 L-6 6z" id="SvgjsPath2743"></path><path d="M30 -30 L-30 30z" id="SvgjsPath2742"></path></defs><symbol id="SvgjsSymbol2745"><use xlink:href="#SvgjsPath2739" x="30" y="30" stroke="#1c538e"></use><use xlink:href="#SvgjsPath2740" x="30" y="90" stroke="#1c538e"></use><use xlink:href="#SvgjsPath2741" x="30" y="150" stroke="#1c538e"></use><use xlink:href="#SvgjsPath2742" x="30" y="210" stroke="#1c538e" stroke-width="3"></use><use xlink:href="#SvgjsPath2743" x="30" y="270" stroke="#1c538e"></use><use xlink:href="#SvgjsPath2739" x="30" y="330" stroke="#1c538e"></use><use xlink:href="#SvgjsPath2740" x="30" y="390" stroke="#1c538e"></use><use xlink:href="#SvgjsPath2739" x="30" y="450" stroke="#1c538e"></use><use xlink:href="#SvgjsPath2744" x="30" y="510" stroke="#1c538e"></use><use xlink:href="#SvgjsPath2739" x="30" y="570" stroke="#1c538e"></use><use xlink:href="#SvgjsPath2743" x="30" y="630" stroke="#1c538e"></use><use xlink:href="#SvgjsPath2743" x="30" y="690" stroke="#1c538e"></use><use xlink:href="#SvgjsPath2740" x="90" y="30" stroke="#1c538e"></use><use xlink:href="#SvgjsPath2739" x="90" y="90" stroke="#1c538e"></use><use xlink:href="#SvgjsPath2740" x="90" y="150" stroke="#1c538e"></use><use xlink:href="#SvgjsPath2739" x="90" y="210" stroke="#1c538e"></use><use xlink:href="#SvgjsPath2743" x="90" y="270" stroke="#1c538e"></use><use xlink:href="#SvgjsPath2741" x="90" y="330" stroke="#1c538e"></use><use xlink:href="#SvgjsPath2743" x="90" y="390" stroke="#1c538e"></use><use xlink:href="#SvgjsPath2739" x="90" y="450" stroke="#1c538e"></use><use xlink:href="#SvgjsPath2744" x="90" y="510" stroke="#1c538e"></use><use xlink:href="#SvgjsPath2744" x="90" y="570" stroke="#1c538e"></use><use xlink:href="#SvgjsPath2743" x="90" y="630" stroke="#1c538e"></use><use xlink:href="#SvgjsPath2740" x="90" y="690" stroke="#1c538e"></use><use xlink:href="#SvgjsPath2740" x="150" y="30" stroke="#1c538e"></use><use xlink:href="#SvgjsPath2743" x="150" y="90" stroke="#1c538e"></use><use xlink:href="#SvgjsPath2744" x="150" y="150" stroke="#1c538e"></use><use xlink:href="#SvgjsPath2741" x="150" y="210" stroke="#1c538e"></use><use xlink:href="#SvgjsPath2739" x="150" y="270" stroke="#1c538e"></use><use xlink:href="#SvgjsPath2740" x="150" y="330" stroke="#1c538e"></use><use xlink:href="#SvgjsPath2739" x="150" y="390" stroke="#1c538e"></use><use xlink:href="#SvgjsPath2743" x="150" y="450" stroke="#1c538e"></use><use xlink:href="#SvgjsPath2740" x="150" y="510" stroke="#1c538e"></use><use xlink:href="#SvgjsPath2744" x="150" y="570" stroke="#1c538e"></use><use xlink:href="#SvgjsPath2743" x="150" y="630" stroke="#1c538e"></use><use xlink:href="#SvgjsPath2744" x="150" y="690" stroke="#1c538e"></use><use xlink:href="#SvgjsPath2739" x="210" y="30" stroke="#1c538e"></use><use xlink:href="#SvgjsPath2739" x="210" y="90" stroke="#1c538e"></use><use xlink:href="#SvgjsPath2741" x="210" y="150" stroke="#1c538e"></use><use xlink:href="#SvgjsPath2743" x="210" y="210" stroke="#1c538e"></use><use xlink:href="#SvgjsPath2741" x="210" y="270" stroke="#1c538e"></use><use xlink:href="#SvgjsPath2743" x="210" y="330" stroke="#1c538e"></use><use xlink:href="#SvgjsPath2740" x="210" y="390" stroke="#1c538e"></use><use xlink:href="#SvgjsPath2743" x="210" y="450" stroke="#1c538e"></use><use xlink:href="#SvgjsPath2741" x="210" y="510" stroke="#1c538e"></use><use xlink:href="#SvgjsPath2740" x="210" y="570" stroke="#1c538e"></use><use xlink:href="#SvgjsPath2740" x="210" y="630" stroke="#1c538e"></use><use xlink:href="#SvgjsPath2744" x="210" y="690" stroke="#1c538e"></use><use xlink:href="#SvgjsPath2742" x="270" y="30" stroke="#1c538e" stroke-width="3"></use><use xlink:href="#SvgjsPath2743" x="270" y="90" stroke="#1c538e"></use><use xlink:href="#SvgjsPath2743" x="270" y="150" stroke="#1c538e"></use><use xlink:href="#SvgjsPath2739" x="270" y="210" stroke="#1c538e"></use><use xlink:href="#SvgjsPath2740" x="270" y="270" stroke="#1c538e"></use><use xlink:href="#SvgjsPath2740" x="270" y="330" stroke="#1c538e"></use><use xlink:href="#SvgjsPath2743" x="270" y="390" stroke="#1c538e"></use><use xlink:href="#SvgjsPath2741" x="270" y="450" stroke="#1c538e"></use><use xlink:href="#SvgjsPath2743" x="270" y="510" stroke="#1c538e"></use><use xlink:href="#SvgjsPath2741" x="270" y="570" stroke="#1c538e"></use><use xlink:href="#SvgjsPath2743" x="270" y="630" stroke="#1c538e"></use><use xlink:href="#SvgjsPath2743" x="270" y="690" stroke="#1c538e"></use><use xlink:href="#SvgjsPath2740" x="330" y="30" stroke="#1c538e"></use><use xlink:href="#SvgjsPath2743" x="330" y="90" stroke="#1c538e"></use><use xlink:href="#SvgjsPath2744" x="330" y="150" stroke="#1c538e"></use><use xlink:href="#SvgjsPath2743" x="330" y="210" stroke="#1c538e"></use><use xlink:href="#SvgjsPath2742" x="330" y="270" stroke="#1c538e" stroke-width="3"></use><use xlink:href="#SvgjsPath2743" x="330" y="330" stroke="#1c538e"></use><use xlink:href="#SvgjsPath2739" x="330" y="390" stroke="#1c538e"></use><use xlink:href="#SvgjsPath2743" x="330" y="450" stroke="#1c538e"></use><use xlink:href="#SvgjsPath2739" x="330" y="510" stroke="#1c538e"></use><use xlink:href="#SvgjsPath2743" x="330" y="570" stroke="#1c538e"></use><use xlink:href="#SvgjsPath2743" x="330" y="630" stroke="#1c538e"></use><use xlink:href="#SvgjsPath2739" x="330" y="690" stroke="#1c538e"></use><use xlink:href="#SvgjsPath2740" x="390" y="30" stroke="#1c538e"></use><use xlink:href="#SvgjsPath2742" x="390" y="90" stroke="#1c538e" stroke-width="3"></use><use xlink:href="#SvgjsPath2740" x="390" y="150" stroke="#1c538e"></use><use xlink:href="#SvgjsPath2739" x="390" y="210" stroke="#1c538e"></use><use xlink:href="#SvgjsPath2739" x="390" y="270" stroke="#1c538e"></use><use xlink:href="#SvgjsPath2743" x="390" y="330" stroke="#1c538e"></use><use xlink:href="#SvgjsPath2743" x="390" y="390" stroke="#1c538e"></use><use xlink:href="#SvgjsPath2742" x="390" y="450" stroke="#1c538e" stroke-width="3"></use><use xlink:href="#SvgjsPath2740" x="390" y="510" stroke="#1c538e"></use><use xlink:href="#SvgjsPath2740" x="390" y="570" stroke="#1c538e"></use><use xlink:href="#SvgjsPath2740" x="390" y="630" stroke="#1c538e"></use><use xlink:href="#SvgjsPath2742" x="390" y="690" stroke="#1c538e" stroke-width="3"></use><use xlink:href="#SvgjsPath2739" x="450" y="30" stroke="#1c538e"></use><use xlink:href="#SvgjsPath2741" x="450" y="90" stroke="#1c538e"></use><use xlink:href="#SvgjsPath2740" x="450" y="150" stroke="#1c538e"></use><use xlink:href="#SvgjsPath2743" x="450" y="210" stroke="#1c538e"></use><use xlink:href="#SvgjsPath2744" x="450" y="270" stroke="#1c538e"></use><use xlink:href="#SvgjsPath2743" x="450" y="330" stroke="#1c538e"></use><use xlink:href="#SvgjsPath2740" x="450" y="390" stroke="#1c538e"></use><use xlink:href="#SvgjsPath2740" x="450" y="450" stroke="#1c538e"></use><use xlink:href="#SvgjsPath2743" x="450" y="510" stroke="#1c538e"></use><use xlink:href="#SvgjsPath2740" x="450" y="570" stroke="#1c538e"></use><use xlink:href="#SvgjsPath2744" x="450" y="630" stroke="#1c538e"></use><use xlink:href="#SvgjsPath2740" x="450" y="690" stroke="#1c538e"></use><use xlink:href="#SvgjsPath2741" x="510" y="30" stroke="#1c538e"></use><use xlink:href="#SvgjsPath2743" x="510" y="90" stroke="#1c538e"></use><use xlink:href="#SvgjsPath2743" x="510" y="150" stroke="#1c538e"></use><use xlink:href="#SvgjsPath2743" x="510" y="210" stroke="#1c538e"></use><use xlink:href="#SvgjsPath2739" x="510" y="270" stroke="#1c538e"></use><use xlink:href="#SvgjsPath2744" x="510" y="330" stroke="#1c538e"></use><use xlink:href="#SvgjsPath2743" x="510" y="390" stroke="#1c538e"></use><use xlink:href="#SvgjsPath2740" x="510" y="450" stroke="#1c538e"></use><use xlink:href="#SvgjsPath2743" x="510" y="510" stroke="#1c538e"></use><use xlink:href="#SvgjsPath2740" x="510" y="570" stroke="#1c538e"></use><use xlink:href="#SvgjsPath2743" x="510" y="630" stroke="#1c538e"></use><use xlink:href="#SvgjsPath2740" x="510" y="690" stroke="#1c538e"></use><use xlink:href="#SvgjsPath2743" x="570" y="30" stroke="#1c538e"></use><use xlink:href="#SvgjsPath2740" x="570" y="90" stroke="#1c538e"></use><use xlink:href="#SvgjsPath2739" x="570" y="150" stroke="#1c538e"></use><use xlink:href="#SvgjsPath2744" x="570" y="210" stroke="#1c538e"></use><use xlink:href="#SvgjsPath2740" x="570" y="270" stroke="#1c538e"></use><use xlink:href="#SvgjsPath2743" x="570" y="330" stroke="#1c538e"></use><use xlink:href="#SvgjsPath2739" x="570" y="390" stroke="#1c538e"></use><use xlink:href="#SvgjsPath2743" x="570" y="450" stroke="#1c538e"></use><use xlink:href="#SvgjsPath2743" x="570" y="510" stroke="#1c538e"></use><use xlink:href="#SvgjsPath2743" x="570" y="570" stroke="#1c538e"></use><use xlink:href="#SvgjsPath2740" x="570" y="630" stroke="#1c538e"></use><use xlink:href="#SvgjsPath2740" x="570" y="690" stroke="#1c538e"></use><use xlink:href="#SvgjsPath2740" x="630" y="30" stroke="#1c538e"></use><use xlink:href="#SvgjsPath2743" x="630" y="90" stroke="#1c538e"></use><use xlink:href="#SvgjsPath2743" x="630" y="150" stroke="#1c538e"></use><use xlink:href="#SvgjsPath2744" x="630" y="210" stroke="#1c538e"></use><use xlink:href="#SvgjsPath2740" x="630" y="270" stroke="#1c538e"></use><use xlink:href="#SvgjsPath2740" x="630" y="330" stroke="#1c538e"></use><use xlink:href="#SvgjsPath2743" x="630" y="390" stroke="#1c538e"></use><use xlink:href="#SvgjsPath2743" x="630" y="450" stroke="#1c538e"></use><use xlink:href="#SvgjsPath2740" x="630" y="510" stroke="#1c538e"></use><use xlink:href="#SvgjsPath2744" x="630" y="570" stroke="#1c538e"></use><use xlink:href="#SvgjsPath2741" x="630" y="630" stroke="#1c538e"></use><use xlink:href="#SvgjsPath2739" x="630" y="690" stroke="#1c538e"></use><use xlink:href="#SvgjsPath2743" x="690" y="30" stroke="#1c538e"></use><use xlink:href="#SvgjsPath2739" x="690" y="90" stroke="#1c538e"></use><use xlink:href="#SvgjsPath2744" x="690" y="150" stroke="#1c538e"></use><use xlink:href="#SvgjsPath2740" x="690" y="210" stroke="#1c538e"></use><use xlink:href="#SvgjsPath2744" x="690" y="270" stroke="#1c538e"></use><use xlink:href="#SvgjsPath2743" x="690" y="330" stroke="#1c538e"></use><use xlink:href="#SvgjsPath2744" x="690" y="390" stroke="#1c538e"></use><use xlink:href="#SvgjsPath2739" x="690" y="450" stroke="#1c538e"></use><use xlink:href="#SvgjsPath2744" x="690" y="510" stroke="#1c538e"></use><use xlink:href="#SvgjsPath2743" x="690" y="570" stroke="#1c538e"></use><use xlink:href="#SvgjsPath2742" x="690" y="630" stroke="#1c538e" stroke-width="3"></use><use xlink:href="#SvgjsPath2743" x="690" y="690" stroke="#1c538e"></use></symbol></svg>